<?xml version="1.0" standalone="no"?>
<!DOCTYPE svg PUBLIC "-//W3C//DTD SVG 20010904//EN"
 "http://www.w3.org/TR/2001/REC-SVG-20010904/DTD/svg10.dtd">
<svg version="1.0" xmlns="http://www.w3.org/2000/svg"
 width="857.000000pt" height="1024.000000pt" viewBox="0 0 857.000000 1024.000000"
 preserveAspectRatio="xMidYMid meet">

<g transform="translate(0.000000,1024.000000) scale(0.100000,-0.100000)"
fill="#000000" stroke="none">
<path d="M4532 10058 c-19 -11 -38 -32 -43 -44 -12 -34 -43 -32 -35 1 8 33
-13 42 -63 27 -43 -13 -80 -50 -111 -109 -23 -46 -29 -50 -48 -31 -17 17 -38
-6 -58 -65 -21 -66 -22 -66 -44 -37 l-19 25 -22 -21 c-15 -15 -23 -40 -28 -80
-7 -66 2 -62 -106 -43 -71 13 -160 5 -226 -21 -50 -19 -149 -85 -149 -100 0
-5 49 -6 109 -3 120 5 246 -10 271 -32 9 -8 20 -15 24 -15 4 0 31 -10 59 -22
l52 -23 -60 -6 c-33 -3 -105 -17 -160 -32 -55 -14 -118 -29 -140 -33 l-40 -7
55 -26 c46 -22 69 -26 140 -26 47 0 97 3 112 8 23 6 33 2 61 -26 60 -61 119
-219 103 -280 -3 -14 -22 -34 -41 -46 -60 -35 -75 -118 -34 -191 27 -47 75
-73 129 -69 22 2 42 0 46 -3 9 -10 -78 -99 -160 -165 -110 -88 -171 -158 -215
-247 -23 -45 -44 -94 -47 -109 l-6 -28 43 29 c48 32 139 66 139 52 0 -5 -16
-26 -35 -47 -76 -82 -120 -199 -155 -409 -34 -203 -55 -251 -124 -284 l-41
-20 48 4 c68 5 62 -18 -10 -40 -81 -24 -195 -23 -254 3 -59 26 -111 73 -144
129 l-26 44 65 63 c83 80 108 130 114 227 6 102 -21 171 -93 246 -97 99 -270
153 -450 140 -150 -11 -375 -72 -575 -156 -41 -17 -91 -37 -110 -45 -19 -7
-78 -33 -130 -58 -245 -114 -393 -159 -540 -161 -52 0 -115 2 -140 6 l-45 8
45 -21 c25 -12 71 -26 103 -32 31 -7 56 -16 54 -21 -5 -14 -266 -101 -422
-142 -211 -55 -599 -114 -750 -114 l-36 0 21 -28 c53 -71 220 -137 373 -148
53 -4 97 -10 97 -14 0 -11 -46 -18 -197 -31 -76 -6 -140 -13 -142 -15 -10 -9
34 -44 79 -63 71 -30 180 -51 271 -51 59 0 79 -3 79 -13 0 -10 -34 -17 -121
-26 -66 -7 -130 -16 -142 -20 -19 -7 -16 -11 26 -35 62 -36 129 -57 196 -59
30 -1 56 -7 58 -12 2 -6 -41 -24 -94 -39 -410 -121 -654 -281 -653 -429 1 -45
16 -67 85 -124 145 -120 296 -317 375 -487 46 -98 47 -107 22 -130 -11 -9 -24
-34 -31 -56 -10 -35 -9 -46 7 -84 30 -66 101 -110 247 -153 73 -21 302 -33
425 -21 135 12 347 59 460 102 l89 33 44 -56 c138 -179 231 -372 257 -536 12
-71 13 -175 3 -175 -5 0 -46 36 -92 79 -47 44 -89 77 -93 75 -4 -3 -8 -17 -8
-32 -1 -75 -42 -210 -111 -357 -56 -123 -198 -339 -409 -625 -258 -350 -420
-635 -479 -840 -41 -143 -51 -213 -51 -360 0 -357 138 -706 397 -1005 176
-204 462 -400 741 -509 222 -87 511 -146 712 -146 38 0 60 -4 58 -10 -2 -6
-39 -25 -83 -43 -292 -118 -443 -283 -433 -472 11 -204 206 -360 527 -421 162
-31 329 -21 646 41 109 21 400 31 493 16 84 -13 166 -40 268 -86 l72 -33 58
29 c245 119 455 131 894 51 201 -37 304 -44 434 -32 261 25 497 147 579 299
51 94 54 208 7 302 -25 48 -103 133 -165 179 -59 44 -197 115 -270 140 -27 9
-50 21 -49 26 0 5 68 14 150 21 844 65 1545 605 1717 1323 88 368 38 686 -166
1045 -83 147 -277 430 -430 629 -17 22 -76 108 -132 192 -163 243 -259 460
-280 628 -4 31 -10 56 -14 56 -3 0 -44 -36 -91 -80 -46 -44 -88 -80 -92 -80
-12 0 -9 96 6 180 28 155 102 312 231 495 33 47 67 85 76 85 9 0 37 -9 63 -21
58 -25 247 -74 374 -96 67 -11 148 -16 262 -15 141 1 179 5 264 26 112 29 167
54 213 99 60 56 65 121 17 192 -17 25 -21 41 -15 53 5 9 27 55 49 102 85 179
217 342 399 494 127 106 -3 281 -307 413 -91 40 -290 109 -375 131 -22 6 -59
16 -83 22 -23 6 -40 15 -38 19 3 4 39 9 79 10 169 4 354 66 447 149 l44 39
-172 6 c-165 6 -240 18 -182 31 14 2 69 7 123 10 144 8 245 38 316 95 l25 19
-120 7 c-128 8 -173 19 -114 29 137 23 170 30 213 46 51 20 127 67 127 80 0 4
-24 8 -52 8 -82 3 -331 23 -339 28 -4 2 -42 9 -85 15 -168 23 -581 145 -591
176 -2 4 23 13 54 20 32 6 78 20 103 32 36 17 39 20 15 16 -186 -35 -356 0
-645 131 -396 178 -666 266 -866 280 -162 12 -325 -33 -424 -116 -61 -51 -94
-105 -115 -189 -14 -52 -15 -71 -5 -114 19 -78 58 -144 123 -202 l58 -53 -16
-32 c-22 -42 -92 -112 -136 -134 -20 -11 -66 -20 -111 -23 -84 -6 -101 5 -47
28 l32 13 -29 23 c-16 13 -42 34 -57 46 -38 29 -76 95 -93 159 -8 29 -21 130
-29 223 -14 149 -24 207 -51 303 -7 26 1 27 49 7 20 -8 62 -15 94 -15 l57 0
-50 53 c-112 116 -166 226 -219 443 -86 354 -99 402 -120 459 -51 134 -42 138
50 20 72 -93 101 -113 173 -122 79 -9 158 20 214 78 26 28 53 70 63 97 37 106
28 274 -19 377 -25 54 -82 118 -100 112 -6 -2 -16 -40 -22 -85 -7 -53 -17 -92
-30 -109 -39 -52 -45 -42 -38 60 8 112 -5 179 -47 236 -39 55 -72 76 -98 62
-19 -10 -19 -18 -15 -134 6 -149 -3 -211 -32 -215 -39 -6 -44 18 -23 93 38
132 15 268 -55 334 -34 32 -124 41 -162 17 -28 -19 -58 -81 -69 -144 -7 -43
-18 -58 -34 -47 -6 3 -4 24 4 53 16 55 21 119 12 147 -18 53 -116 71 -175 33z
m0 -367 c98 -45 241 -208 317 -361 56 -112 95 -233 146 -455 25 -110 54 -229
65 -265 28 -95 90 -217 144 -282 25 -31 46 -59 46 -63 0 -10 -54 8 -97 32 -65
38 -130 117 -180 221 l-46 94 -15 -33 c-11 -24 -16 -69 -16 -151 -1 -127 -5
-132 -47 -51 -21 43 -24 61 -24 163 0 63 3 151 8 194 4 44 4 77 1 73 -3 -3
-16 -66 -28 -140 -32 -189 -79 -284 -173 -349 -25 -16 -47 -28 -50 -25 -2 3 5
27 17 54 32 73 41 167 25 284 -7 55 -15 102 -17 104 -2 3 -10 -46 -16 -107
-14 -131 -39 -192 -106 -259 -41 -41 -165 -123 -174 -115 -2 2 6 22 17 44 34
66 60 142 86 247 44 183 43 192 -16 76 -57 -113 -141 -214 -215 -257 -24 -14
-85 -39 -136 -56 -51 -16 -106 -37 -121 -45 -16 -8 -31 -12 -34 -10 -8 8 43
101 86 154 22 28 86 89 143 136 165 136 217 212 226 329 9 128 -56 268 -184
395 -67 66 -77 81 -45 64 14 -8 20 -7 25 4 11 29 -31 39 -118 26 -127 -18
-246 -15 -260 8 -3 4 61 24 142 44 137 34 211 41 241 23 6 -4 11 -3 11 2 0 17
-119 93 -187 118 -53 21 -95 28 -193 33 l-125 7 57 28 c72 34 172 44 268 26
86 -16 98 -23 80 -45 -10 -12 -10 -19 -2 -27 9 -9 17 -5 32 15 30 38 109 92
160 111 65 23 218 17 282 -13z m435 -1229 c12 -26 43 -74 68 -106 62 -80 92
-181 105 -356 22 -278 49 -367 135 -449 29 -27 50 -52 47 -55 -12 -13 -74 -5
-129 16 -73 27 -150 99 -193 180 l-33 62 -2 156 c-1 131 -5 167 -25 233 -15
50 -28 77 -38 77 -10 0 -12 -6 -8 -22 41 -140 48 -204 41 -369 -8 -175 2 -241
47 -331 10 -21 18 -40 18 -43 0 -12 -83 38 -122 73 -47 43 -75 85 -106 162
-32 77 -37 150 -18 242 24 117 19 338 -8 338 -8 0 -11 -50 -12 -162 0 -188 -8
-225 -85 -417 -28 -69 -54 -144 -58 -166 -3 -22 -11 -40 -16 -40 -20 0 -67
109 -86 198 -23 111 -24 178 -4 216 19 39 53 176 57 231 2 34 -1 45 -12 45
-11 0 -17 -18 -22 -72 -8 -78 -44 -192 -82 -257 -99 -171 -134 -267 -121 -332
8 -43 -5 -43 -40 -3 -43 52 -76 126 -91 209 -14 72 -14 79 5 123 11 25 38 103
60 174 54 171 72 199 145 237 76 40 161 122 189 183 17 37 22 43 25 27 4 -28
-33 -136 -63 -185 -31 -48 -31 -52 -2 -44 89 26 174 93 222 175 34 56 45 62
45 25 0 -43 45 -117 104 -174 32 -29 59 -51 61 -49 3 2 -7 37 -20 77 -18 52
-25 95 -25 147 0 88 14 96 47 26z m-612 -14 c-36 -116 -85 -210 -121 -231 -24
-14 -15 -28 13 -21 23 6 25 5 19 -12 -4 -10 -30 -86 -58 -169 -101 -300 -175
-401 -335 -456 -91 -31 -96 -29 -68 34 13 28 31 97 40 152 22 137 60 277 97
354 38 80 90 133 192 195 97 58 170 119 197 163 28 46 40 41 24 -9z m-1183
-187 c65 -21 156 -75 191 -115 74 -84 93 -226 44 -323 -27 -53 -107 -139 -139
-149 -24 -7 -23 -17 14 -86 30 -56 83 -110 136 -137 37 -19 21 -22 -38 -6 -61
16 -151 74 -181 117 -47 65 -48 154 -2 208 l25 30 -30 25 c-36 30 -62 82 -62
124 0 29 -2 31 -40 31 -104 0 -209 42 -279 111 -39 39 -44 42 -64 29 -100 -62
-264 -128 -427 -171 -193 -50 -629 -104 -653 -80 -8 8 -4 11 14 11 56 0 232
64 449 163 296 135 551 219 730 241 81 10 246 -2 312 -23z m3038 0 c111 -25
325 -97 433 -145 17 -8 77 -34 132 -59 189 -85 290 -125 387 -153 54 -16 98
-33 98 -37 0 -18 -355 22 -560 64 -172 35 -376 110 -493 181 l-38 22 -31 -33
c-68 -73 -146 -107 -268 -120 l-65 -6 -7 -47 c-6 -49 -36 -100 -66 -117 -15
-9 -15 -12 5 -33 98 -104 9 -271 -175 -328 -76 -24 -91 -20 -35 8 65 34 165
156 163 201 0 3 -19 17 -42 31 -44 27 -107 105 -128 160 -22 54 -17 156 9 217
43 98 153 176 293 208 82 19 272 12 388 -14z m-3402 -207 c52 -52 145 -93 225
-101 l67 -6 11 -39 c5 -22 12 -45 15 -53 13 -34 -178 -25 -251 12 -53 28 -113
83 -146 135 l-33 50 25 19 c34 26 45 24 87 -17z m3402 21 c17 -9 30 -18 30
-21 0 -3 -18 -32 -41 -65 -55 -82 -134 -133 -230 -149 -89 -15 -164 -6 -153
18 3 9 10 33 13 52 6 34 8 35 64 41 31 4 79 14 105 24 57 22 148 80 156 100 7
19 20 19 56 0z m-3518 -69 c9 -18 30 -49 47 -69 17 -19 31 -37 31 -39 0 -7
-120 -26 -205 -33 -99 -9 -255 19 -255 46 0 4 24 12 53 19 60 14 267 89 282
101 17 16 31 9 47 -25z m3705 -17 c56 -21 132 -46 168 -55 72 -18 75 -32 8
-52 -88 -25 -219 -23 -370 4 -41 8 -41 16 -3 57 16 17 37 46 47 64 12 23 23
31 33 27 8 -3 61 -24 117 -45z m-4102 -109 c20 -32 241 -54 363 -35 36 5 35 5
-17 -20 -89 -42 -198 -59 -336 -52 -66 3 -131 9 -145 13 -22 6 -20 1 19 -39
93 -97 208 -133 394 -123 64 3 117 4 117 2 0 -2 -25 -23 -55 -46 -69 -54 -182
-100 -263 -107 -35 -3 -59 -9 -55 -14 23 -21 186 -61 271 -66 79 -5 91 -8 80
-20 -22 -22 -119 -53 -165 -53 -24 0 -43 -4 -43 -9 0 -4 36 -20 80 -35 102
-34 239 -36 345 -5 39 11 125 26 191 34 69 8 150 25 188 38 36 14 66 22 66 19
0 -26 -121 -103 -215 -137 -18 -7 -17 -9 10 -21 17 -7 64 -21 105 -30 64 -15
85 -15 143 -5 68 11 149 40 196 70 17 11 43 15 81 13 38 -3 72 3 110 17 29 11
56 19 58 16 6 -5 -47 -72 -85 -106 -15 -15 -46 -36 -68 -47 l-40 -20 30 -13
c17 -7 71 -13 125 -13 86 -1 101 2 155 29 40 19 89 58 149 118 48 48 90 87 91
85 2 -2 7 -37 11 -79 5 -56 2 -89 -10 -131 l-16 -56 -137 -7 c-253 -12 -556
-40 -795 -74 -115 -15 -128 -16 -134 -2 -4 9 -8 61 -10 116 l-4 100 -217 17
c-475 37 -864 35 -1208 -8 -119 -15 -152 -20 -400 -69 -163 -32 -325 -35 -429
-8 -77 21 -99 43 -42 43 117 0 557 95 846 182 210 63 622 200 617 205 -3 2
-123 -32 -268 -77 -641 -198 -1077 -258 -1324 -182 -85 25 -80 38 17 46 217
18 643 100 863 167 133 40 337 111 332 115 -2 2 -41 -8 -88 -22 -381 -115
-580 -153 -839 -161 -226 -7 -316 7 -429 64 -96 49 -101 63 -23 63 75 0 160
11 410 51 176 28 482 115 702 199 65 25 93 29 215 34 142 6 298 25 390 49 48
13 77 9 90 -13z m4560 -10 c66 -12 188 -24 270 -27 139 -5 156 -8 230 -38 291
-119 656 -200 923 -206 39 -1 72 -6 72 -10 0 -13 -49 -35 -120 -56 -98 -27
-402 -24 -610 6 -208 30 -865 162 -879 177 -3 2 11 20 30 40 l34 35 -45 -8
c-25 -4 -106 -8 -180 -8 -140 0 -234 18 -306 59 l-29 17 37 -6 c54 -8 216 -8
263 0 42 8 122 42 130 56 3 4 18 4 33 -2 15 -5 81 -18 147 -29z m-3998 -24
c56 -29 135 -48 175 -44 52 5 30 -17 -38 -40 -106 -35 -188 -39 -272 -13 -39
11 -73 21 -76 21 -13 0 -4 -17 30 -54 19 -21 33 -40 31 -43 -3 -2 -48 -9 -102
-15 -121 -13 -227 1 -305 40 -30 15 -54 31 -53 35 2 4 56 9 120 11 146 4 240
25 352 81 47 23 87 43 88 44 1 0 23 -10 50 -23z m3358 -19 c131 -62 220 -82
368 -82 70 0 127 -4 127 -8 0 -16 -124 -66 -193 -78 -98 -16 -277 -1 -277 23
0 6 14 26 31 45 16 19 28 37 25 40 -2 3 -26 -2 -53 -11 -106 -35 -233 -27
-339 20 l-39 17 60 8 c66 8 149 34 180 55 11 8 22 13 25 11 3 -1 41 -20 85
-40z m-3045 -25 c0 -4 -9 -25 -20 -47 -11 -22 -20 -58 -20 -81 0 -28 -5 -44
-15 -48 -36 -13 -174 -18 -224 -7 -52 11 -161 68 -161 84 0 4 24 5 54 2 90
-11 190 10 286 59 93 47 100 50 100 38z m2852 -92 c40 -7 99 -10 131 -6 58 6
60 5 43 -12 -9 -11 -41 -31 -72 -46 -68 -33 -192 -44 -269 -24 -48 12 -50 14
-47 45 2 18 -6 53 -17 79 -12 25 -21 50 -21 55 0 5 40 -11 90 -35 56 -28 117
-49 162 -56z m-1577 43 c13 -77 46 -196 65 -233 18 -36 77 -100 91 -100 4 0
10 26 14 58 3 31 13 75 20 97 18 52 70 173 78 181 3 3 11 -14 17 -37 18 -68
67 -153 118 -204 47 -47 88 -71 170 -99 35 -13 42 -13 42 -1 0 8 -4 16 -9 19
-23 14 -89 181 -91 229 0 20 20 2 55 -49 53 -77 177 -154 247 -154 10 0 21 -8
25 -17 26 -76 156 -203 223 -218 47 -10 44 -21 -13 -45 -170 -74 -312 4 -368
204 l-17 61 -6 -50 c-17 -139 -80 -316 -105 -300 -5 2 -12 22 -16 42 -10 58
-60 154 -105 206 -23 26 -45 47 -49 47 -3 0 -15 -31 -24 -69 -23 -90 -75 -171
-134 -210 -26 -17 -52 -31 -58 -31 -8 0 -15 25 -19 65 -8 82 -37 176 -68 221
-27 39 -34 42 -43 14 -9 -30 -103 -171 -139 -208 -33 -36 -78 -66 -112 -76
-20 -6 -21 -4 -16 68 5 74 -20 226 -37 226 -5 0 -21 -19 -36 -42 -47 -71 -155
-172 -219 -203 -44 -22 -77 -30 -137 -33 -82 -5 -99 4 -54 28 74 40 151 190
163 317 l7 76 45 25 c43 24 137 113 172 163 19 27 18 28 39 -66 8 -37 29 -82
54 -120 53 -79 169 -168 134 -102 -7 12 -13 56 -13 97 -1 69 3 83 43 168 25
50 48 92 52 92 5 0 11 -17 14 -37z m2382 -89 c153 -36 569 -120 688 -139 55
-9 132 -22 170 -30 84 -17 348 -52 463 -61 52 -4 81 -11 79 -18 -6 -18 -109
-44 -228 -56 -268 -27 -684 20 -1425 159 -263 50 -263 50 -303 88 -33 32 -34
34 -11 29 14 -4 66 -9 117 -13 105 -7 189 6 267 42 28 13 56 24 63 24 6 1 60
-11 120 -25z m-4051 -33 c36 -33 209 -60 282 -43 59 14 55 -2 -16 -70 -53 -51
-65 -57 -138 -74 -125 -28 -454 -24 -454 7 0 5 8 9 19 9 36 0 158 70 217 124
60 56 73 63 90 47z m3475 -45 c50 -47 146 -103 224 -131 63 -23 -215 -43 -347
-25 -141 19 -174 32 -235 92 -29 29 -53 56 -53 61 0 5 31 6 68 2 79 -7 179 8
232 35 19 11 39 19 44 20 4 0 35 -24 67 -54z m-3035 -82 c22 -22 62 -51 87
-63 26 -13 47 -24 47 -26 0 -9 -100 -47 -156 -60 -92 -22 -315 -18 -329 5 -2
4 28 23 68 43 68 34 173 124 200 173 9 17 11 16 26 -7 8 -13 34 -42 57 -65z
m2796 -103 c96 -47 90 -51 -77 -58 -88 -4 -137 -1 -185 10 -74 18 -160 52
-160 65 0 4 24 20 54 34 32 16 73 48 101 81 l48 54 70 -74 c55 -57 88 -83 149
-112z m503 104 c22 -4 51 -11 65 -16 26 -9 262 -50 690 -119 135 -22 283 -46
328 -54 123 -22 334 -45 440 -48 67 -1 92 -5 92 -15 0 -7 -38 -31 -84 -53
-178 -86 -422 -99 -762 -40 -249 44 -547 70 -789 70 -151 0 -472 -14 -597 -26
-59 -6 -68 -4 -68 10 0 9 -6 16 -12 16 -46 0 -224 117 -206 135 4 5 14 3 21
-4 26 -21 112 -42 207 -50 52 -4 142 -20 200 -36 92 -24 118 -27 210 -22 102
4 230 38 230 59 0 4 -21 8 -47 8 -50 1 -154 37 -160 56 -2 7 27 13 84 17 86 5
246 47 258 67 4 6 -10 10 -33 10 -43 0 -142 26 -157 42 -7 7 0 8 20 4 17 -3
48 -8 70 -11z m-2650 -57 c-10 -86 -22 -106 -80 -137 -40 -21 -64 -26 -120
-26 -110 0 -121 10 -46 45 35 17 90 56 124 88 62 58 105 90 120 91 5 1 6 -27
2 -61z m-171 -36 c-41 -38 -115 -73 -181 -86 l-68 -13 39 -16 c21 -10 42 -17
47 -17 4 0 10 -4 14 -10 3 -5 -20 -22 -52 -37 -50 -23 -74 -28 -164 -31 -144
-5 -158 4 -80 51 55 35 141 118 141 138 0 5 44 9 98 8 58 0 115 6 142 15 25 8
54 14 64 15 20 1 20 1 0 -17z m1896 -74 c35 -38 82 -77 114 -94 32 -17 52 -32
46 -38 -10 -10 -150 -22 -150 -12 0 4 12 17 27 30 l27 23 -50 -4 c-38 -4 -63
0 -98 15 -47 21 -156 116 -156 136 0 7 30 11 90 10 l90 -1 60 -65z m-2762 57
c-2 -3 -22 -11 -43 -18 l-39 -14 66 -21 c37 -12 74 -22 83 -22 8 0 15 -4 15
-9 0 -15 -110 -31 -204 -30 -139 1 -142 7 -34 61 51 26 100 49 108 52 20 6 55
7 48 1z m3423 -41 c31 -18 69 -38 85 -45 l29 -11 -25 -10 c-33 -13 -247 -4
-285 12 l-30 12 25 8 c14 5 52 16 85 26 l60 17 -37 10 c-21 5 -38 13 -38 18 0
18 75 -3 131 -37z m-1713 -78 c14 -36 25 -89 29 -142 l6 -84 -172 0 c-94 0
-171 2 -171 5 0 3 15 11 33 19 64 26 172 143 213 230 10 20 23 35 28 33 6 -2
21 -29 34 -61z m345 17 c43 -62 78 -149 84 -207 l6 -55 -164 6 c-160 5 -205
14 -158 28 66 21 142 113 174 213 9 28 20 52 24 52 5 0 20 -17 34 -37z m310
-89 c74 -83 182 -102 307 -55 33 13 64 17 90 14 l40 -6 0 -78 c0 -43 -4 -89
-9 -102 l-9 -24 -89 13 c-146 21 -442 54 -489 54 -24 0 -44 3 -44 7 0 4 13 21
29 38 37 38 76 116 92 179 12 49 12 49 28 27 9 -13 33 -43 54 -67z m-955 -334
c12 -24 22 -57 22 -73 0 -24 -4 -28 -22 -25 -14 2 -24 12 -28 27 -13 57 -70
48 -70 -11 0 -24 8 -34 49 -60 63 -39 84 -80 84 -168 0 -104 -40 -159 -105
-145 -32 8 -60 55 -73 126 -6 32 -4 37 15 42 14 4 23 0 27 -11 20 -65 26 -73
51 -70 18 2 28 12 35 31 13 40 -7 80 -49 100 -62 30 -95 123 -75 210 13 56 38
79 80 75 31 -3 39 -9 59 -48z m222 -52 l0 -98 39 0 38 0 7 61 c3 34 6 77 6 96
0 29 3 34 21 31 21 -3 22 -6 20 -198 -2 -244 -7 -290 -32 -290 -17 0 -19 9
-19 105 l0 104 -35 7 c-20 3 -39 3 -43 0 -3 -4 -8 -54 -10 -112 -4 -99 -5
-104 -26 -104 l-22 0 3 228 c2 125 6 236 8 247 3 13 12 21 25 21 19 0 20 -6
20 -98z m-495 84 c9 -6 116 -448 115 -474 0 -5 -11 -8 -24 -8 -20 0 -25 6 -31
39 -9 56 -23 69 -67 64 -36 -5 -37 -6 -44 -59 -6 -48 -9 -54 -30 -54 -28 0
-27 -2 -14 93 6 40 15 107 20 150 30 234 35 257 60 257 3 0 10 -4 15 -8z
m-127 -44 c-3 -39 -6 -43 -30 -46 -16 -2 -28 -9 -28 -15 0 -7 4 -61 9 -122 24
-281 24 -275 -2 -275 -24 0 -24 1 -36 183 -7 100 -13 191 -14 202 -2 16 -8 20
-34 17 -27 -2 -34 2 -39 22 -14 59 5 69 139 74 l38 2 -3 -42z m932 33 c0 -5
11 -91 24 -192 43 -320 42 -297 13 -292 -22 4 -26 12 -32 59 l-6 54 -45 0
c-39 0 -44 -3 -50 -27 -14 -65 -21 -78 -40 -75 -10 2 -20 5 -22 7 -3 3 95 436
105 461 6 15 53 20 53 5z m232 -2 c25 -13 48 -68 48 -114 0 -31 -3 -35 -25
-35 -20 0 -25 5 -25 24 0 34 -26 59 -49 46 -42 -22 -31 -76 21 -108 49 -30 63
-64 63 -146 0 -117 -46 -180 -117 -163 -34 9 -58 62 -58 126 0 44 3 51 20 51
13 0 20 -7 20 -20 0 -27 20 -68 37 -74 22 -9 53 30 53 68 0 28 -7 39 -32 57
-63 45 -78 72 -78 142 0 113 57 181 122 146z m-1513 -25 c26 -19 51 -71 51
-109 0 -35 -31 -33 -52 5 -19 33 -39 38 -58 16 -20 -25 -7 -59 30 -83 71 -45
82 -56 97 -92 9 -20 16 -66 16 -103 1 -82 -21 -121 -73 -126 -44 -5 -76 28
-96 96 -17 59 -18 57 14 66 16 6 22 3 22 -8 0 -23 21 -64 36 -70 22 -9 42 4
48 30 12 46 -4 73 -55 100 -65 33 -89 79 -89 171 1 73 11 96 51 112 32 13 31
13 58 -5z m135 -6 c5 -21 26 -222 42 -396 6 -73 6 -74 -17 -70 -26 3 -25 -5
-48 253 -6 61 -13 138 -17 173 -6 59 -6 62 14 62 14 0 23 -8 26 -22z m1606 10
c7 -57 30 -410 30 -450 0 -55 -1 -57 -22 -49 -18 6 -23 17 -26 52 -4 65 -7 69
-51 69 -40 0 -41 -1 -54 -47 -12 -40 -18 -49 -40 -51 -30 -4 -33 -20 39 223
82 275 74 255 100 255 13 0 24 -1 24 -2z m194 -176 c11 -83 21 -150 24 -148 5
6 28 143 37 224 6 51 10 62 25 62 11 0 21 -3 23 -7 3 -5 -1 -48 -9 -98 -23
-149 -54 -365 -54 -375 0 -6 -11 -10 -24 -10 -22 0 -24 6 -35 78 -6 42 -14
104 -17 137 -6 56 -23 110 -24 76 0 -18 -29 -220 -35 -248 -4 -15 -13 -23 -25
-23 -11 0 -20 3 -20 6 0 8 58 412 65 452 5 27 10 33 28 30 21 -3 23 -13 41
-156z m-2120 109 c27 -46 35 -171 13 -205 -16 -23 -14 -29 28 -119 25 -52 45
-99 45 -106 0 -6 -11 -11 -25 -11 -21 0 -30 12 -65 87 -38 82 -53 102 -74 103
-8 0 -5 -55 10 -162 6 -46 6 -48 -18 -48 -27 0 -21 -31 -78 410 -5 36 -6 68
-2 72 11 10 52 16 102 14 39 -1 46 -5 64 -35z m-226 -28 c3 -38 1 -41 -29 -47
-17 -3 -43 -6 -57 -6 -23 0 -24 -2 -18 -37 3 -21 6 -46 6 -55 0 -16 7 -17 60
-11 54 5 60 4 60 -13 0 -10 3 -29 6 -41 5 -19 1 -22 -51 -28 l-57 -8 6 -36
c18 -101 11 -93 79 -89 l61 3 7 -35 c4 -19 6 -36 5 -38 -2 -1 -40 -9 -85 -16
-80 -12 -82 -12 -86 8 -18 83 -75 459 -71 463 7 7 137 31 151 28 6 -1 11 -20
13 -42z m2542 37 c12 -8 11 -29 -10 -162 -29 -176 -31 -235 -10 -248 20 -13
26 -12 44 5 16 16 23 50 56 255 12 74 23 136 24 138 10 10 36 -14 36 -34 0
-32 -47 -320 -60 -365 -16 -56 -46 -89 -81 -89 -46 0 -67 16 -79 62 -13 46 -7
102 45 416 6 34 11 37 35 22z m-2739 -202 c6 -349 7 -323 -20 -323 -23 0 -31
17 -108 225 -45 124 -83 228 -83 233 0 15 48 6 55 -10 4 -10 29 -81 56 -158
28 -76 52 -141 55 -144 2 -3 2 75 -2 172 l-7 177 26 0 25 0 3 -172z m3081 118
c44 -70 -2 -350 -69 -422 -23 -25 -29 -26 -85 -21 -33 3 -62 8 -65 11 -5 5 43
274 78 437 l10 45 56 -10 c46 -8 59 -15 75 -40z m-3318 -3 c3 -10 14 -63 25
-118 11 -55 32 -154 46 -219 19 -81 24 -121 17 -128 -27 -27 -40 5 -85 224
-26 122 -47 228 -47 235 0 10 14 20 32 22 4 1 9 -7 12 -16z m3536 -23 c27 -14
43 -83 36 -152 -15 -126 -75 -286 -117 -308 -21 -12 -125 -4 -134 10 -3 4 11
77 30 161 20 85 43 186 51 224 8 39 17 75 19 81 4 13 81 2 115 -16z m-3636 3
c2 -10 12 -49 21 -88 9 -38 25 -106 35 -150 49 -205 51 -218 38 -227 -26 -16
-34 -6 -133 177 -21 38 -40 65 -42 59 -2 -6 10 -67 26 -135 17 -71 26 -128 21
-133 -17 -17 -39 3 -46 41 -4 21 -26 121 -50 223 -24 102 -44 190 -44 196 0 7
9 14 20 17 17 4 31 -15 96 -134 42 -76 78 -139 79 -139 2 0 -3 28 -11 63 -9
34 -24 99 -35 145 -10 46 -17 88 -14 93 10 15 33 10 39 -8z m3794 -50 c-3 -10
-29 -116 -59 -237 -32 -129 -59 -221 -67 -224 -36 -14 -33 20 24 247 56 221
59 231 82 231 18 0 23 -4 20 -17z m-3981 -168 c65 -257 60 -325 -25 -327 -64
-2 -89 46 -152 291 -35 134 -40 165 -29 172 8 5 18 7 23 6 5 -2 29 -79 52
-171 45 -177 62 -216 93 -216 42 0 41 39 -9 236 -22 87 -40 165 -40 172 0 8 9
12 22 10 19 -3 26 -22 65 -173z m4075 30 c4 -72 9 -141 10 -155 2 -14 18 34
38 108 19 74 37 138 41 143 3 5 14 7 23 3 20 -8 20 -11 -15 -134 -11 -41 -35
-132 -53 -201 -19 -70 -36 -131 -40 -137 -3 -6 -15 -8 -26 -5 -19 5 -20 14
-20 155 0 83 -4 147 -9 144 -5 -3 -23 -64 -41 -136 -27 -109 -35 -130 -51
-130 -11 0 -19 7 -19 17 0 14 102 413 115 451 3 8 13 12 22 10 16 -3 19 -21
25 -133z m-2026 -460 c30 -88 30 -266 0 -425 -14 -74 -23 -136 -21 -139 7 -6
3 -12 70 129 l60 125 0 133 c0 148 8 154 45 34 40 -129 17 -306 -60 -467 -16
-33 -27 -61 -25 -63 6 -7 63 60 109 128 65 97 89 175 84 278 -4 82 -4 84 14
60 51 -66 61 -198 24 -298 -33 -88 -34 -85 12 -61 39 20 173 61 199 61 7 0 13
-6 13 -14 0 -19 -77 -104 -111 -122 -37 -19 -37 -34 -1 -34 49 0 120 -30 164
-70 24 -21 41 -41 37 -44 -3 -3 -37 7 -75 23 -97 40 -193 55 -310 49 -96 -5
-108 -8 -259 -67 -13 -5 -37 0 -70 15 -163 75 -379 74 -552 -2 -57 -25 -67
-17 -29 21 31 31 93 62 141 70 68 11 69 14 18 48 -48 34 -112 111 -100 123 10
11 143 -24 197 -51 57 -29 59 -25 31 50 -39 104 -36 195 11 288 25 51 38 47
26 -10 -23 -104 28 -251 128 -373 32 -38 59 -68 61 -66 2 1 -10 32 -26 67 -57
127 -76 205 -75 319 0 88 4 115 25 169 14 36 32 67 39 69 9 3 11 -1 6 -14 -18
-44 -18 -169 -2 -234 17 -65 125 -298 126 -270 0 8 -9 67 -20 130 -41 233 -36
359 17 478 l25 56 18 -24 c10 -13 26 -47 36 -75z m-1895 -246 c116 -75 146
-117 173 -245 16 -75 7 -163 -27 -260 -26 -74 -38 -84 -43 -32 -9 92 -48 193
-110 283 -71 104 -134 265 -134 340 l0 27 31 -32 c17 -17 67 -53 110 -81z
m3769 106 c0 -3 -13 -31 -29 -63 -38 -76 -77 -198 -96 -301 -24 -133 -19 -377
10 -493 13 -50 -11 -30 -39 32 -100 222 -107 438 -22 625 39 84 176 240 176
200z m-3320 -334 c19 -136 -31 -258 -158 -388 -134 -137 -252 -247 -252 -234
0 44 110 228 255 426 53 73 111 187 120 239 10 51 24 34 35 -43z m2875 -146
c20 -79 70 -157 217 -342 107 -134 214 -290 206 -299 -8 -7 -262 250 -323 326
-102 128 -145 234 -145 356 0 42 6 95 13 118 l12 41 6 -85 c4 -47 10 -98 14
-115z m602 -4 c-7 -91 -14 -111 -84 -264 -29 -65 -59 -143 -65 -175 -11 -54
-12 -55 -20 -27 -10 36 -1 153 17 216 7 25 38 96 69 158 30 62 58 128 62 146
12 65 27 26 21 -54z m-3972 -76 c60 -58 85 -119 85 -207 0 -64 -29 -194 -40
-181 -3 4 -12 37 -19 73 -24 122 -106 284 -198 389 -23 26 -40 51 -37 54 11
11 161 -81 209 -128z m1709 -60 c32 -9 88 -27 123 -41 l64 -26 55 26 c181 86
411 70 613 -41 77 -43 76 -42 69 -48 -3 -3 -24 1 -47 10 -70 24 -206 38 -309
30 -96 -7 -106 -18 -27 -31 46 -7 145 -53 145 -67 0 -5 -8 -6 -17 -2 -10 3
-53 11 -96 17 -90 13 -103 7 -87 -39 6 -17 10 -51 8 -74 l-3 -44 -22 37 c-28
48 -98 88 -166 95 l-53 5 0 -73 c1 -64 -3 -83 -33 -144 l-33 -70 -36 75 c-37
76 -45 127 -29 183 7 26 6 27 -26 27 -83 0 -158 -41 -212 -115 -14 -19 -14
-19 -14 10 0 17 4 50 10 74 6 28 6 48 0 54 -9 9 -117 -2 -181 -18 l-25 -7 23
21 c27 24 123 61 157 61 13 0 26 4 29 9 9 14 -151 24 -236 16 -68 -7 -147 -24
-193 -41 -17 -7 -18 -5 -8 7 29 36 204 109 318 133 49 10 186 5 239 -9z
m-1199 -152 c-40 -96 -127 -193 -260 -291 -156 -114 -209 -154 -242 -185 -18
-17 -35 -28 -39 -25 -7 8 86 158 134 218 86 105 151 157 308 248 39 22 76 48
84 56 23 28 31 17 15 -21z m2075 -62 c36 -21 89 -53 117 -71 29 -18 76 -38
105 -45 l53 -13 -37 -16 c-51 -22 -76 -20 -133 9 -27 13 -51 22 -53 20 -7 -6
45 -91 79 -130 16 -18 52 -45 80 -59 27 -13 45 -27 40 -30 -12 -8 -107 3 -139
15 -46 18 -55 12 -47 -28 8 -46 46 -106 80 -129 44 -29 30 -37 -47 -30 -66 7
-158 36 -158 50 0 4 18 22 39 41 49 45 71 90 71 149 0 25 -2 46 -4 46 -2 0
-33 -20 -69 -44 -62 -42 -133 -73 -143 -64 -2 3 4 20 13 39 25 48 24 133 -3
184 -11 22 -41 55 -65 74 l-44 34 34 -7 c39 -7 120 -44 169 -76 52 -35 37 -10
-38 67 -38 39 -70 74 -70 77 0 12 111 -29 170 -63z m-1284 -13 c-36 -40 -63
-74 -61 -77 3 -2 13 3 23 12 23 21 118 64 162 72 l35 7 -38 -27 c-76 -53 -113
-187 -73 -263 10 -19 15 -36 12 -39 -7 -8 -130 51 -169 81 -19 15 -37 26 -40
26 -4 0 -7 -19 -7 -42 0 -56 33 -122 81 -160 22 -18 36 -35 32 -39 -19 -16
-103 -38 -165 -43 -38 -3 -68 -4 -68 -3 0 2 22 26 49 54 36 37 52 63 59 95 4
24 7 45 6 47 -2 2 -25 -2 -51 -8 -70 -16 -143 -23 -143 -13 0 4 15 16 34 24
49 24 100 71 135 127 41 64 40 75 -8 50 -58 -30 -102 -34 -146 -13 l-38 18 49
11 c57 13 97 33 179 89 67 45 158 85 193 86 21 0 16 -9 -42 -72z m249 -62 c0
-69 3 -88 19 -105 l20 -21 14 42 c27 80 73 122 155 142 26 6 27 5 27 -34 0
-38 -12 -52 -25 -30 -3 6 -20 10 -37 10 -45 0 -78 -34 -78 -80 0 -43 19 -73
59 -90 38 -15 84 4 89 38 2 12 7 22 12 22 8 0 51 -86 65 -129 6 -21 5 -23 -11
-16 -11 5 -63 23 -117 41 -169 57 -217 100 -217 192 0 44 13 102 23 102 1 0 3
-38 2 -84z m704 40 c6 -25 11 -55 11 -66 0 -39 -32 -91 -72 -118 -32 -21 -278
-115 -285 -109 -1 1 12 35 29 75 28 67 48 91 48 58 0 -25 51 -58 80 -51 37 9
70 46 76 86 8 47 -30 89 -80 89 -19 0 -38 -4 -41 -10 -14 -22 -25 -8 -25 31 0
40 1 41 28 34 82 -20 135 -69 154 -141 7 -24 15 -44 19 -44 4 0 15 12 25 28
19 29 25 106 11 155 -4 15 -3 27 2 27 5 0 14 -20 20 -44z m-2350 -57 c72 -134
68 -232 -13 -409 -25 -52 -48 -104 -52 -115 -5 -15 -10 -4 -16 39 -7 42 -5
104 6 212 9 83 16 197 16 253 0 56 4 101 8 101 5 0 28 -36 51 -81z m1585 22
c-12 -77 33 -154 115 -196 26 -13 90 -37 142 -54 60 -20 105 -41 119 -56 l24
-25 26 25 c17 16 68 39 136 61 118 38 155 57 195 101 37 40 52 86 47 138 -7
59 10 59 67 2 78 -77 83 -173 13 -252 l-40 -45 29 0 c61 0 206 54 225 84 17
26 20 -7 4 -43 -20 -42 -82 -94 -163 -135 -29 -14 -53 -29 -53 -32 0 -3 9 -19
20 -34 27 -39 115 -80 184 -87 31 -3 56 -9 56 -13 0 -11 -71 -40 -114 -46 -53
-8 -143 9 -203 38 -26 13 -52 25 -58 27 -5 2 31 -38 80 -90 80 -84 171 -219
148 -219 -4 0 -32 7 -62 15 -74 19 -153 74 -208 145 -57 74 -68 68 -67 -38 1
-73 5 -89 49 -196 8 -19 8 -19 -24 0 -45 26 -125 112 -149 161 -12 22 -26 61
-33 87 -6 26 -13 45 -15 43 -2 -2 -5 -57 -7 -123 -3 -113 -5 -123 -40 -196
-19 -43 -38 -78 -40 -78 -3 0 -19 29 -35 64 -37 79 -54 156 -52 238 2 89 1 90
-19 26 -23 -71 -79 -147 -148 -199 -29 -21 -54 -39 -57 -39 -2 0 7 28 22 63
20 50 26 79 26 149 1 47 -2 90 -7 94 -4 4 -15 -3 -24 -17 -34 -48 -96 -109
-141 -139 -48 -31 -149 -67 -160 -56 -16 17 92 170 172 243 31 28 56 54 56 57
0 4 -22 -5 -49 -18 -71 -36 -170 -52 -237 -37 -29 7 -63 20 -75 30 -22 18 -22
18 36 25 69 8 146 39 171 70 49 58 51 52 -22 88 -80 40 -148 97 -162 137 -14
40 -6 43 35 15 41 -28 151 -64 195 -64 l30 0 -31 39 c-38 48 -51 81 -51 133 0
53 24 102 69 138 50 42 63 39 55 -9z m2096 -152 c80 -64 173 -146 207 -183 70
-74 163 -202 163 -223 0 -7 -27 7 -62 35 -35 27 -102 76 -149 110 -119 85
-180 142 -253 236 -60 78 -136 196 -136 211 0 4 19 -10 43 -31 23 -22 107 -92
187 -155z m-1822 89 c9 -18 9 -34 2 -52 -18 -49 -90 -22 -90 35 0 52 65 65 88
17z m323 22 c24 -13 26 -62 3 -85 -9 -9 -28 -15 -43 -13 -22 3 -26 9 -29 39
-2 24 3 42 13 53 19 19 29 20 56 6z m1864 -96 c16 -79 45 -326 44 -374 0 -20
-4 -17 -20 20 -39 86 -63 201 -63 295 0 83 9 153 19 143 3 -2 12 -40 20 -84z
m-4267 -324 c48 -114 58 -171 42 -242 -12 -51 -100 -257 -110 -258 -6 0 -20
49 -65 220 -42 155 -35 304 18 416 51 108 49 108 63 29 6 -39 30 -113 52 -165z
m591 148 c-65 -129 -154 -223 -295 -314 -49 -32 -115 -77 -146 -101 -32 -24
-58 -41 -58 -37 0 20 111 183 163 239 56 62 166 154 184 156 4 0 40 22 78 48
89 62 102 63 74 9z m3936 -80 c15 -66 19 -139 22 -350 2 -148 0 -268 -5 -268
-8 0 -54 134 -83 240 -21 77 -16 222 11 347 14 62 28 113 31 113 3 0 14 -37
24 -82z m-585 -88 c0 -10 122 -91 180 -120 116 -58 251 -181 305 -279 14 -24
24 -45 23 -47 -2 -1 -39 19 -83 46 -44 26 -111 66 -150 88 -123 71 -217 164
-277 274 -33 60 -32 59 -13 52 8 -4 15 -10 15 -14z m770 -259 c31 -94 33 -106
27 -198 -3 -68 -13 -122 -32 -178 -15 -43 -29 -103 -32 -132 -11 -103 -27 -52
-40 127 -4 56 0 131 11 219 10 73 18 162 18 197 0 35 3 64 7 64 4 0 23 -45 41
-99z m-4296 2 c-40 -134 -111 -224 -243 -310 -186 -120 -227 -150 -275 -198
-47 -47 -49 -48 -42 -20 10 43 72 170 118 242 60 95 132 154 277 228 70 36
136 74 146 85 29 32 34 24 19 -27z m-731 -21 c4 -21 26 -78 51 -127 72 -147
87 -234 61 -365 -21 -113 -59 -268 -67 -276 -4 -3 -12 13 -18 37 -6 23 -33 88
-59 144 -73 155 -85 197 -85 300 0 66 6 110 23 164 26 84 69 173 81 166 4 -2
10 -22 13 -43z m5226 -152 c36 -85 54 -169 47 -228 -7 -62 -67 -228 -101 -283
-35 -55 -82 -197 -95 -288 -7 -44 -16 -79 -20 -76 -4 2 -10 27 -14 55 -14 106
-115 281 -215 371 -30 27 -85 64 -121 82 -56 28 -75 32 -143 32 l-79 0 38 32
c116 101 304 15 419 -192 19 -33 50 -109 71 -170 20 -60 38 -112 40 -114 2 -2
3 63 3 145 -1 164 4 185 97 409 30 73 37 103 38 160 0 39 -3 86 -8 105 -8 31
-8 34 6 22 9 -7 25 -35 37 -62z m-684 -39 c51 -16 116 -41 145 -56 52 -27 180
-147 180 -170 0 -8 -22 -2 -57 16 -32 15 -110 51 -173 79 -132 58 -197 103
-240 162 -44 60 -38 76 12 34 29 -25 70 -45 133 -65z m-2030 -178 c8 -73 25
-75 25 -3 0 41 34 151 43 139 2 -2 0 -53 -4 -114 -4 -60 -10 -222 -14 -360 -8
-280 4 -407 48 -506 34 -78 70 -114 159 -166 43 -25 77 -48 75 -50 -6 -5 -192
71 -261 106 l-58 30 -57 -28 c-96 -49 -252 -112 -264 -108 -7 2 15 18 48 34
134 68 195 154 222 312 13 70 14 143 9 391 -3 168 -8 341 -11 385 l-5 80 19
-39 c10 -22 22 -68 26 -103z m-2774 -193 c16 -30 66 -101 112 -157 101 -125
125 -183 142 -335 7 -62 11 -114 10 -116 -2 -2 -27 20 -57 50 -29 29 -99 95
-155 146 -88 80 -108 104 -143 175 l-42 82 5 100 c3 77 10 114 29 160 14 33
29 69 33 80 6 15 11 1 22 -55 8 -41 28 -100 44 -130z m5681 103 c62 -177 14
-307 -212 -583 -34 -41 -77 -104 -96 -140 l-35 -65 6 51 c14 127 107 354 199
482 55 77 97 175 103 242 3 33 9 60 12 60 3 0 14 -21 23 -47z m-4897 -55 c-51
-154 -75 -188 -266 -378 -97 -96 -180 -185 -183 -197 -4 -13 -12 -23 -18 -23
-12 0 -4 122 14 205 25 117 95 223 194 293 92 66 279 188 283 186 1 -2 -9 -40
-24 -86z m4153 -168 c209 -105 342 -356 342 -646 0 -56 -4 -94 -10 -94 -5 0
-10 13 -10 28 0 16 -9 63 -19 104 -78 305 -351 568 -588 568 -58 0 -65 7 -30
30 64 41 93 50 163 50 64 0 81 -4 152 -40z m928 -47 c27 -92 24 -186 -9 -257
-45 -97 -140 -203 -242 -270 -190 -124 -230 -154 -263 -192 -20 -24 -37 -42
-39 -40 -6 6 48 108 93 177 24 36 96 117 159 180 190 187 252 281 262 400 3
32 10 59 14 59 5 0 16 -26 25 -57z m-5077 -393 c-24 -89 -48 -127 -154 -245
-116 -129 -162 -208 -174 -300 l-7 -50 -33 100 c-28 85 -34 115 -34 200 -2
168 28 224 223 415 76 74 148 151 161 170 l24 35 3 -140 c2 -88 -2 -157 -9
-185z m-1066 251 c10 -48 109 -143 245 -235 70 -46 147 -104 171 -128 38 -38
111 -137 111 -152 0 -3 24 -58 54 -121 30 -63 53 -115 52 -115 -14 0 -387 187
-424 212 -178 121 -265 317 -236 531 7 51 18 54 27 8z m5031 -51 c113 -43 178
-89 252 -178 107 -130 157 -275 157 -452 0 -162 -43 -293 -145 -443 -47 -69
-60 -69 -24 -1 84 164 88 412 10 618 -48 124 -97 202 -187 295 -45 46 -165
141 -179 141 -16 0 -98 42 -94 49 8 13 149 -7 210 -29z m-3763 -142 c29 -112
31 -233 5 -328 -9 -36 -62 -155 -116 -265 -54 -110 -104 -222 -111 -248 -11
-45 -8 -140 6 -197 10 -38 -88 70 -135 150 -104 176 -90 327 47 517 21 29 71
98 112 154 76 105 136 219 147 276 3 18 10 33 14 33 4 0 18 -42 31 -92z m5039
-64 c0 -132 -15 -188 -75 -278 -69 -105 -180 -175 -370 -236 -176 -56 -288
-104 -345 -147 -30 -23 -57 -39 -59 -37 -8 7 139 151 201 199 32 24 122 78
200 120 269 145 365 246 415 437 9 37 21 64 25 62 4 -3 8 -57 8 -120z m-1485
22 c210 -56 348 -247 362 -503 7 -127 -8 -230 -52 -345 -60 -156 -156 -277
-287 -363 -68 -45 -94 -78 -40 -52 15 8 63 31 107 52 44 22 82 42 85 46 9 11
51 31 56 26 3 -2 -18 -19 -46 -37 -56 -36 -62 -45 -23 -35 123 31 289 56 453
70 239 19 320 31 430 61 121 33 232 87 293 143 48 44 29 2 -33 -74 -92 -113
-177 -167 -330 -211 -58 -16 -108 -19 -487 -20 -385 -1 -425 -3 -460 -19 -63
-31 -237 -95 -255 -95 -9 0 -19 -4 -22 -8 -3 -4 75 -14 172 -20 97 -7 224 -21
282 -30 75 -12 164 -17 310 -17 194 1 210 2 298 28 51 15 111 35 133 44 92 37
30 -16 -91 -77 -220 -111 -493 -139 -735 -75 -447 118 -462 121 -569 95 -45
-10 -97 -22 -116 -26 -34 -7 -34 -7 -10 -15 14 -4 99 -23 190 -43 91 -20 213
-51 272 -71 189 -62 327 -87 475 -89 152 -1 151 -12 -7 -40 -52 -9 -111 -21
-131 -26 -82 -22 -288 2 -427 49 -54 18 -222 94 -402 180 -50 23 -65 26 -157
24 -97 -2 -131 7 -80 22 28 9 150 128 226 220 103 125 164 232 205 361 52 162
57 290 16 451 -11 42 -18 78 -16 80 9 9 46 -19 79 -59 71 -88 97 -172 97 -311
0 -267 -199 -557 -465 -678 -58 -26 -83 -44 -73 -54 5 -5 207 22 244 33 47 15
113 52 179 103 248 192 374 575 284 866 -31 100 -73 177 -129 235 -27 28 -47
54 -45 57 3 3 31 0 63 -7 111 -23 202 -114 245 -246 28 -87 27 -280 -2 -391
-27 -101 -98 -249 -155 -324 -68 -88 -165 -171 -250 -215 -131 -67 -110 -71
84 -14 58 16 119 37 135 46 87 44 202 183 271 327 64 134 88 241 88 405 1 123
-2 143 -28 223 -46 140 -136 261 -240 322 -67 39 -59 45 29 21z m-3399 -365
c8 -35 47 -137 87 -225 l72 -161 1 -205 c1 -127 6 -222 13 -250 11 -42 62
-126 85 -142 6 -4 8 -9 5 -12 -8 -8 -150 64 -215 110 -189 134 -253 309 -208
575 14 82 88 329 125 414 l13 30 4 -35 c2 -19 10 -64 18 -99z m-1521 18 c72
-73 186 -118 425 -169 176 -38 281 -87 381 -177 49 -44 163 -182 157 -189 -3
-2 -27 0 -54 6 -27 5 -125 17 -218 25 -250 23 -339 45 -446 110 -69 42 -166
142 -208 216 -24 42 -92 202 -92 216 0 11 21 -3 55 -38z m6436 -97 c-39 -129
-136 -256 -255 -333 -91 -60 -195 -95 -351 -119 -324 -49 -412 -72 -501 -126
-112 -70 -111 -69 -61 -23 26 25 47 50 47 56 0 6 8 17 18 24 15 13 16 12 3 -4
-8 -9 -11 -21 -7 -25 4 -4 16 3 26 15 9 12 20 20 23 16 4 -3 28 8 54 25 95 61
264 133 491 208 263 87 420 195 510 347 25 42 26 15 3 -61z m-4555 -182 c15
-28 42 -67 59 -88 57 -67 122 -169 143 -224 11 -29 25 -93 32 -143 6 -49 18
-118 26 -153 14 -63 55 -155 74 -167 5 -3 10 -10 10 -15 0 -12 -58 14 -130 58
-123 76 -226 209 -276 357 -46 138 -43 359 7 480 l12 30 8 -43 c4 -23 20 -65
35 -92z m2489 -28 c31 -89 34 -198 7 -269 -23 -61 -79 -149 -152 -238 -31 -38
-76 -97 -100 -130 l-42 -60 6 60 c6 53 5 61 -15 76 l-22 16 41 81 c22 45 67
125 100 179 104 170 132 241 132 333 0 58 13 44 45 -48z m-1237 -262 l-3 -61
-84 -34 c-131 -54 -121 -55 -121 7 l0 54 93 46 c50 25 98 46 105 47 10 1 12
-15 10 -59z m-2944 -55 c90 -40 206 -55 420 -55 293 0 410 -19 573 -93 97 -44
117 -67 59 -67 -18 0 -104 -13 -190 -30 -269 -50 -340 -56 -445 -37 -164 29
-281 90 -393 203 -64 65 -96 104 -85 104 3 0 30 -11 61 -25z m2944 -122 l-3
-58 -55 -18 c-182 -61 -272 -85 -276 -72 -11 29 1 80 21 88 92 39 293 116 303
116 10 1 12 -14 10 -56z m-504 -25 c12 -48 7 -54 -62 -81 -83 -33 -88 -33 -94
-3 -7 33 -2 37 62 66 30 13 59 28 65 32 15 13 22 9 29 -14z m2568 0 c-6 -6
-15 -8 -19 -4 -4 4 -1 11 7 16 19 12 27 3 12 -12z m-2449 -105 c4 -21 3 -41
-1 -45 -9 -9 -139 -48 -159 -48 -8 0 -13 13 -13 33 0 33 2 35 78 65 42 17 80
31 83 31 4 1 9 -16 12 -36z m-325 -4 c-3 -27 -10 -34 -62 -55 -63 -25 -76 -24
-76 7 0 14 17 28 58 48 75 38 84 38 80 0z m710 -41 l-3 -63 -90 -22 c-49 -12
-91 -21 -92 -20 -4 5 -6 107 -2 110 7 6 163 56 177 56 10 1 12 -15 10 -61z
m-600 -40 c-3 -32 -5 -33 -112 -66 -88 -27 -110 -31 -117 -20 -5 7 -9 17 -9
21 0 13 188 94 223 96 15 1 18 -5 15 -31z m360 -29 l3 -46 -91 -22 c-51 -12
-93 -21 -95 -19 -2 2 -5 21 -7 43 l-3 40 75 27 c102 37 114 35 118 -23z
m-1290 -24 c78 -16 139 -31 135 -35 -20 -18 -359 -140 -443 -161 -129 -30
-290 -31 -410 0 -70 17 -250 92 -250 103 0 2 42 4 93 5 66 1 117 9 182 28 110
32 301 82 335 88 63 11 225 -2 358 -28z m1050 -41 l3 -40 -58 -11 c-32 -6 -65
-13 -73 -15 -11 -2 -16 7 -18 33 l-3 37 63 20 c35 11 68 19 73 18 6 -2 11 -20
13 -42z m482 -33 l0 -48 -55 -7 c-30 -3 -90 -17 -132 -31 -43 -14 -91 -25
-106 -25 -27 0 -28 1 -25 47 l3 47 130 32 c72 17 142 32 158 33 26 1 27 -1 27
-48z m-678 -21 c3 -22 -2 -26 -62 -42 -50 -14 -66 -15 -72 -5 -20 31 -8 45 55
65 34 10 65 16 69 13 3 -3 8 -17 10 -31z m313 -51 c4 -22 5 -42 3 -45 -7 -6
-108 -24 -140 -24 -28 0 -29 2 -26 38 3 37 4 37 68 54 89 23 87 23 95 -23z
m-585 25 c0 -4 -10 -15 -22 -26 -13 -11 -43 -38 -68 -61 -63 -57 -181 -132
-245 -156 -122 -46 -296 -52 -464 -16 -83 17 -122 34 -81 35 55 0 150 34 294
104 177 86 245 103 419 110 71 2 131 7 134 10 8 8 33 8 33 0z m2120 -148 c193
-117 333 -175 423 -176 15 0 27 -4 27 -9 0 -5 -30 -7 -67 -4 -189 11 -404 77
-581 177 l-73 41 6 39 c3 22 8 43 11 47 8 13 142 -48 254 -115z m-1745 83 c4
-17 3 -35 -1 -39 -8 -7 -163 -30 -206 -30 -23 0 -25 48 -2 57 22 8 166 41 186
42 11 1 19 -10 23 -30z m812 -24 c77 -29 153 -87 178 -136 8 -15 15 -52 15
-82 0 -127 -141 -230 -201 -146 -29 41 -15 79 30 79 40 0 58 23 42 54 -18 33
-63 56 -109 56 -53 0 -66 -17 -48 -61 18 -44 7 -70 -41 -103 -60 -41 -115 -34
-175 22 -30 28 -34 48 -17 86 17 37 -3 56 -56 56 -56 0 -108 -39 -103 -79 2
-21 9 -27 33 -29 58 -7 71 -39 34 -86 -32 -41 -82 -33 -142 23 -38 34 -57 83
-57 141 0 97 108 190 264 226 99 22 264 13 353 -21z m-597 -42 c-1 -10 -36
-53 -44 -53 -12 0 -6 48 7 53 19 8 37 8 37 0z m-97 -45 c2 -18 3 -35 1 -37 -2
-2 -34 -4 -71 -5 l-68 -1 0 30 c0 26 4 31 35 36 19 4 49 7 66 8 28 1 32 -2 37
-31z m-192 -15 c13 -35 0 -43 -73 -43 -54 0 -58 2 -58 23 0 21 7 25 58 34 31
6 58 11 60 12 1 0 7 -11 13 -26z m219 -103 c0 -28 -3 -30 -35 -30 -32 0 -35 2
-35 30 0 28 3 30 35 30 32 0 35 -2 35 -30z m-120 -5 l0 -25 -105 0 c-98 0
-105 1 -105 20 0 17 8 20 68 23 37 2 84 4 105 5 33 2 37 0 37 -23z m465 -202
c-18 -97 -99 -269 -143 -303 -14 -11 -22 -23 -19 -26 3 -3 28 15 55 40 50 47
103 137 137 231 22 61 27 66 43 56 39 -24 -72 -304 -161 -406 l-44 -49 -35 36
c-20 19 -50 38 -68 41 l-32 7 82 77 c89 84 134 161 159 276 14 63 38 82 26 20z
m252 -23 c23 -122 103 -245 203 -315 l42 -29 -40 -14 c-23 -7 -54 -27 -71 -44
-24 -25 -33 -29 -45 -19 -29 24 -114 158 -144 226 -38 86 -61 200 -44 217 8 8
14 4 23 -18 52 -125 105 -221 149 -266 58 -61 80 -58 25 3 -20 23 -50 70 -66
104 -34 71 -71 194 -63 206 12 20 20 6 31 -51z m-774 -90 c16 -18 27 -42 27
-59 0 -24 6 -30 39 -39 47 -15 121 -15 155 -2 19 7 26 6 26 -3 0 -14 -82 -67
-144 -92 -162 -68 -356 -15 -356 96 0 30 37 97 62 110 72 39 150 34 191 -11z
m1454 14 c57 -37 79 -123 44 -172 -52 -73 -210 -88 -341 -33 -41 17 -90 44
-109 60 l-34 28 74 -4 c47 -3 88 0 113 9 34 11 39 18 43 47 4 41 18 60 58 78
36 16 119 9 152 -13z m-2027 -63 c0 -5 -7 -14 -16 -22 -26 -21 -46 -70 -46
-110 1 -74 43 -137 117 -176 110 -59 371 -58 572 2 21 7 21 7 5 -39 -13 -36
-14 -53 -6 -83 6 -21 13 -45 15 -53 6 -20 -190 -75 -361 -101 -111 -17 -166
-20 -315 -16 -255 7 -385 43 -485 133 -121 109 -39 267 120 233 62 -13 90 -40
90 -84 0 -42 -29 -75 -67 -75 -46 0 -84 52 -48 66 23 9 18 23 -10 30 -58 14
-75 -54 -26 -108 24 -27 36 -32 77 -34 35 -1 63 -10 99 -32 72 -44 154 -62
284 -62 121 0 242 20 306 51 27 13 32 18 15 15 -14 -3 -70 -8 -125 -12 -170
-11 -343 25 -418 87 -32 26 -37 36 -37 71 0 23 -9 55 -20 73 -20 32 -20 35 -4
77 28 72 108 146 184 169 35 10 100 11 100 0z m2559 -21 c59 -30 89 -58 122
-115 34 -60 35 -73 8 -119 -13 -22 -19 -48 -17 -71 3 -35 -1 -40 -45 -71 -93
-65 -263 -94 -439 -76 -57 5 -105 8 -107 6 -5 -5 41 -22 114 -42 44 -13 101
-17 215 -17 170 0 216 10 302 64 30 19 54 27 70 24 68 -13 146 65 120 122 -13
29 -52 34 -72 10 -12 -15 -11 -16 12 -19 39 -4 -7 -66 -49 -66 -33 0 -73 43
-73 78 0 38 28 62 89 78 94 24 169 -17 178 -98 27 -238 -522 -346 -1052 -208
-152 39 -169 46 -160 68 16 38 17 110 2 141 -9 17 -12 31 -9 31 4 0 41 -10 82
-21 107 -30 341 -38 430 -15 178 46 251 200 152 317 l-27 32 56 -6 c31 -3 75
-15 98 -27z m-1315 -72 c24 -72 26 -89 17 -128 -6 -25 -20 -53 -32 -63 -22
-18 -23 -17 -47 6 -32 33 -40 100 -18 166 26 81 35 101 44 101 5 0 21 -37 36
-82z m-144 -139 c0 -27 36 -83 64 -100 53 -32 116 1 138 73 6 21 14 38 17 38
4 0 26 -25 50 -56 86 -111 174 -159 215 -118 19 18 21 48 4 41 -7 -3 -20 -8
-29 -11 -9 -4 -26 1 -40 12 -21 18 -22 22 -10 45 14 26 56 47 93 47 33 0 98
-40 119 -73 47 -75 2 -160 -111 -211 -136 -61 -288 -62 -369 -2 l-33 24 -50
-31 c-49 -31 -56 -32 -152 -31 -78 0 -115 5 -160 22 -116 43 -168 92 -170 161
-1 53 20 88 72 118 34 20 52 24 83 20 73 -10 103 -61 55 -92 -19 -12 -30 -14
-44 -6 -24 13 -34 4 -21 -20 16 -30 44 -40 76 -29 29 11 183 162 183 180 0 6
5 10 10 10 6 0 10 -5 10 -11z"/>
<path d="M4190 9571 c0 -5 11 -18 24 -28 21 -17 23 -25 19 -70 -5 -44 -3 -53
15 -62 21 -11 42 2 22 14 -15 9 -12 61 5 75 13 11 15 8 15 -19 0 -47 39 -83
82 -76 48 9 76 31 80 62 2 23 8 28 28 27 14 -1 34 -4 45 -9 13 -5 7 6 -18 31
l-37 39 -128 5 c-70 3 -133 9 -139 13 -8 5 -13 4 -13 -2z m191 -86 c-1 -15
-24 -12 -29 3 -3 9 2 13 12 10 10 -1 17 -7 17 -13z"/>
<path d="M4560 9420 c0 -49 -37 -117 -78 -145 -59 -40 -144 -30 -204 23 -27
23 -21 0 11 -45 50 -69 115 -105 186 -105 81 1 149 57 161 134 7 39 -25 125
-57 154 -18 16 -19 16 -19 -16z"/>
<path d="M4680 9422 c0 -4 9 -13 20 -20 30 -19 24 -32 -15 -32 -19 0 -35 -2
-35 -4 0 -2 23 -26 50 -53 57 -57 66 -86 23 -74 -16 4 -35 6 -43 4 -42 -12
-41 -11 -25 -42 8 -17 15 -49 15 -73 l0 -42 -38 37 c-51 50 -65 49 -57 -5 7
-45 -7 -98 -25 -98 -5 0 -10 6 -10 13 0 15 -58 87 -71 87 -5 0 -9 -11 -9 -25
0 -29 -26 -85 -39 -85 -5 0 -11 18 -14 41 -3 22 -13 49 -23 60 -24 26 -29 17
-10 -20 9 -16 16 -50 16 -76 0 -25 3 -45 8 -45 18 0 54 34 71 68 l19 36 21
-34 c11 -19 21 -45 21 -57 0 -58 59 18 67 87 6 48 7 50 24 34 10 -9 24 -32 31
-50 7 -19 15 -34 19 -34 3 0 12 20 19 45 12 42 10 78 -6 133 -10 36 41 30 77
-9 l29 -31 0 30 c0 36 -21 87 -50 125 -22 28 -20 51 2 29 16 -16 28 -15 28 2
0 18 -63 86 -79 86 -6 0 -11 -3 -11 -8z"/>
<path d="M3946 6725 c-4 -27 -9 -65 -12 -82 -5 -31 -3 -33 26 -33 30 0 31 1
24 36 -4 20 -12 57 -19 83 l-12 46 -7 -50z"/>
<path d="M4722 6715 c-7 -33 -15 -70 -18 -82 -6 -20 -3 -23 25 -23 35 0 34 -8
12 125 l-7 40 -12 -60z"/>
<path d="M5186 6722 c-11 -18 -36 -134 -31 -142 3 -6 15 -10 26 -10 17 0 19 7
19 80 0 76 -3 90 -14 72z"/>
<path d="M3211 6753 c-21 -4 -23 -9 -17 -41 3 -21 6 -47 6 -59 0 -18 6 -23 28
-23 43 0 57 15 56 59 -1 42 -18 72 -38 70 -6 -1 -22 -4 -35 -6z"/>
<path d="M5856 6663 c-5 -20 -56 -286 -56 -296 0 -4 16 -7 35 -7 28 0 37 5 50
30 23 44 45 148 45 212 0 47 -4 59 -19 68 -29 15 -49 12 -55 -7z"/>
<path d="M6095 6627 c-2 -7 -19 -77 -38 -157 l-34 -145 30 -9 c25 -8 33 -6 48
13 33 41 70 199 61 260 -3 22 -12 32 -33 40 -22 8 -31 7 -34 -2z"/>
<path d="M4230 4692 c-31 -18 -40 -27 -28 -30 9 -2 26 2 37 7 34 19 33 12 -5
-34 -43 -53 -37 -57 18 -14 43 35 57 32 39 -7 -6 -15 -9 -29 -6 -33 6 -6 18 7
41 46 9 14 13 -1 18 -76 9 -110 26 -106 26 7 0 39 3 72 7 72 4 0 18 -12 31
-27 19 -23 23 -24 19 -8 -3 11 -8 28 -12 38 -12 28 16 20 52 -15 44 -42 56
-27 13 17 -36 37 -36 54 0 35 37 -20 46 -4 10 18 -44 27 -62 28 -78 2 -18 -30
-79 -27 -112 5 l-25 24 -45 -27z"/>
</g>
</svg>
